<svg id="Lager_1_Bild" data-name="Lager 1 Bild" xmlns="http://www.w3.org/2000/svg" viewBox="0 0 1920 1469.28"><path d="M300.67,1178c-6.17-2.87-12.56-5.36-18.43-8.73-5.12-2.94-8.85-2-12.6,2-3.45,3.68-6.71,7.77-10.83,10.5-2.64,1.74-7.85,3-9.83,1.53-2.85-2.06-5.89-7.16-5.25-10.21,3.23-15.28,9.37-29.43,22.09-39.43,2.88-2.26,8-4.68,10.68-3.58,5.5,2.28,7.64,8.15,6.13,14.14s-3.89,11.46-6.12,17.8c5.65,2.63,11.4,4.72,16.48,7.87,3.05,1.9,5.05,5.47,7.52,8.28Z"/><path d="M283,1122.91c-1.4-2.31-4.76-5.24-4.66-8.05.59-18.13,8.91-33,21.68-45.31,2.07-2,8.89-2.54,10.39-.89,3.54,3.87,8,10.12,7,14.23-2.18,9.35-7.44,18-11.37,26.93C302.06,1118.93,293.66,1120.55,283,1122.91Z"/><path d="M1609.34,1055.65c-3.86-4.36-8.41-8.3-11.32-13.22-1.74-2.92-1.93-7.73-.78-11,.53-1.5,6.19-2.34,9.08-1.65,15.71,3.78,28.06,14.81,22.86,30.54-6.61-1.6-13.37-3.25-20.11-4.87Z"/><path d="M784.12,650.8c16.74,3.06,13.52,16.94,19.28,25.93-9.12,4-17.44,7.41-25.57,11.24-18.51,8.71-36.92,17.67-55.4,26.45-7.17,3.4-10.11,1.57-11.37-6.25a63.92,63.92,0,0,0-3.24-12.25q-21-56-42.29-111.9c-3.69-9.66-8-19.06-12.83-30.33,15.22-8.06,30.56-16.31,46-24.3a115.58,115.58,0,0,1,14.74-6.07c4.67-1.64,9.35-2.73,8-9.55-.22-1.09,2-3.78,3.16-3.78,1.84,0,4.45,1.13,5.37,2.63,3.74,6,7,12.39,10.53,18.92l-7.19,6.05c-2.58-3.27-4.83-6.12-7.44-9.41l-38.15,17.9,25.72,64.71c14.84-5,15.9-6.16,14.44-15.5,7.4-3.17,10.29-1.94,12.13,5.22.66,2.57.8,5.37,1.93,7.71,2.82,5.88,1.28,10.14-4.35,13.64-1.68-2.35-3.36-4.67-5-6.89-13.34,2.78-14.65,4.72-10.16,16.74,6.3,16.9,12.89,33.69,19.46,50.49a71.66,71.66,0,0,0,3.89,7.24c11.85-5.63,23.5-10.81,34.71-16.8,2.09-1.12,3-5.44,3.42-8.43C784.55,660.07,784.12,655.8,784.12,650.8Z"/><path d="M524.6,654.83l-11.79,9.66L511,662.33c14-18.19,33-30.67,51.23-44l1.92,1.78-7.81,9.24,104.05,93.78,1.34-.61c-12.21-46.52-24.42-93-37.11-141.39-3.52,3.58-5.59,6.79-8.53,8.38-3.14,1.69-7.1,1.85-10.71,2.68.42-3.63-.52-9,1.5-10.59,10.24-8,21.15-15.12,32.12-22.08,1.62-1,5.65-.27,7.09,1.15,1,1-.1,4.62-.83,6.89a6.15,6.15,0,0,1-3,3.58c-9.06,3.42-8.22,9.92-6.14,17.38,12.9,46.3,25.48,92.69,38.59,138.94,2.29,8.1,2.22,14.19-5.19,19.52-6.84,4.91-13,10.71-18,14.86-15.17-13.15-29.42-25.77-44-38-25.22-21.26-50.62-42.3-76-63.42C529.32,658.56,527.06,656.8,524.6,654.83Z"/><path d="M495.11,882.56l32.11-28c-3.86-6-7.86-11.9-11.35-18-1.19-2.08-1.12-4.88-1.63-7.35,3,.17,6.16-.2,8.89.73,1.68.57,2.83,3,4,4.8,4.5,6.91,9.18,13.73,13.24,20.9,1.92,3.4,2.59,7.52,4.57,13.6l-15.66-5.87-72.92,72.86-3-2.38c3.89-6,7.41-12.29,11.77-17.93,3.7-4.77,3.87-8.27.08-13.29-25.82-34.2-51.31-68.65-76.92-103-2.23-3-4.51-5.93-6.75-8.91-3.89-5.17-7.95-5.12-12.88-1.12-2.74,2.22-6.31,3.43-9.51,5.1L357,792.36c1.21-2.61,1.76-6,3.74-7.71q22.39-19.24,45.34-37.84c2.31-1.87,5.8-2.29,8.75-3.39.47.71.95,1.42,1.43,2.12l-11.37,13.55C411.35,776.3,463.35,847.56,495.11,882.56Z"/><path d="M460.73,709.11l-14.55,11.57-1.66-1.77c12.13-21.48,30.86-36.32,51.29-49.45.83.57,1.66,1.14,2.5,1.7L491,682.85l87.93,123,11.39-5.91,1.71,2.35-47.47,49.64-2.71-2.2c1.66-2.78,2.84-6.09,5.11-8.23,3.42-3.24,3.68-6,1.07-9.71C519,791.1,490.09,750.38,460.73,709.11Z"/><path d="M762.29,634.71c-.92-25.58-2-50.37-2.49-75.18-.07-3.28,2.62-6.62,4.82-11.78,13.92,23.48,26.84,45.29,39.67,67-6,8.32-8.87,8.14-13.64-.25-2.2-3.87-4.35-7.91-7.31-11.16-1.4-1.53-5.25-2.51-6.93-1.66-2.12,1.06-4.33,4.22-4.42,6.55-.18,4.71.85,9.5,1.75,14.19C775.48,631.38,774.58,632.77,762.29,634.71Zm10.24-54-1.44.23v13.88l7.66-3.29Z"/><path d="M799.58,548.81c-6.47,1.16-11.58,2.4-16.75,2.8-1.5.11-4.05-2-4.5-3.5-.39-1.33,1.12-4.37,2.46-4.88,13.8-5.27,27.74-10.17,41.6-15.16,3.27,9,2.24,11.78-4.88,12.32-7.55.57-8,4.75-6.72,10.4,3.28,14.24,6.54,28.5,10.07,42.68,2.19,8.8,1.42,11.17-7.36,16Z"/><path d="M723.83,1037.64l-40.4,21.64c-18-40.94-35.35-80.52-52.74-120.09-2.3-5.24-.7-9.21,3.65-12.53,17.25-13.14,36.95-19.8,58.32-21.4,9.07-.68,17.58,2.78,21,11.63,4.62,12.08,7.66,24.77,11.19,37.25a7.23,7.23,0,0,1-.86,4.59c-2.86,5.81-1.38,11,2.36,15.59,9,11.17,17.66,22.77,27.65,33,4.91,5,12.48,7.5,18.84,11.12-5.36,10.89-30,16.09-39.87,7.77,2-1.41,3.85-2.78,5.76-3.94,8.35-5.06,8.87-6.89,2.55-14.71-8.35-10.35-17.15-20.34-25.62-30.6-3.67-4.44-7.69-4.92-12.71-2.47-16,7.85-17.8,3.66-8.09,22,4.73,8.92,9.16,18,13.53,27.11,3.12,6.49,6.41,12.55,15.54,11.85C723.88,1036.17,723.86,1036.9,723.83,1037.64ZM689.11,914.83c-6.68,2.34-11.85,3.62-16.53,5.9-8.34,4.07-9.24,7.47-5.52,15.91,3.52,8,6.93,16,10.39,24.05,5.81,13.46,6.42,13.71,19.83,8a28.14,28.14,0,0,0,3.62-1.63c12.34-7.53,17-13.49,11.91-26.92-2.11-5.61-4.65-11.6-8.67-15.82S693.91,917.74,689.11,914.83Z"/><path d="M840.91,986.37c-1-3.23-2-5.4-2.37-7.68-1.4-8.14-9.45-13.4-17-10.15-2.22.94-4.4,4.82-4.48,7.42-.43,14.07-.2,28.16-.2,43.33,14.5.73,28.73,1.59,43,2,1.78,0,3.81-2.23,5.4-3.76,2-1.94,3.68-4.21,5.61-6.47,3.64,4.49,3.23,18.5-1.52,22.09-2.59,2-8,.47-12.11,0-13.66-1.55-27.26-3.64-40.94-4.93-11.36-1.08-22.8-1.33-34.91-2-.17-2.92-.46-5.47-.43-8,.32-35.66.74-71.33,1-107,.05-6.51,1.94-10.23,9.41-9,24.39,4.06,48.78,8.18,73.25,11.73,7.19,1,8.35,4.19,6.42,10.24-2.17,6.78-4.19,13.61-6.36,20.72-8.63-5.25-3.75-12.83-4.6-20.55-11.27-2.22-22.83-4.82-34.52-6.47-2-.28-6.31,3.32-6.61,5.51-1.33,10-1.65,20.14-2.24,30.23-.28,4.79,1.38,7.24,7,7.13,4.88-.11,10.44,3.17,14.5,1.68,3.76-1.38,5.93-7.11,8.82-10.95C851.68,959.24,849.06,976.32,840.91,986.37Z"/><path d="M1078.13,1117.43c-11.09,1.72-21.22-2.32-31.81-10.58l10.54-1.59c0-15.66.6-31.29-.53-46.79-.21-3-7-6.15-11.28-7.76-1.87-.71-6.38,1.62-7.54,3.75-5.48,10-10.48,20.32-15,30.82-.83,2,1,5.56,2.48,7.88,1.25,2,3.68,3.25,5.91,5.1-7,3.49-50.81-13-54.68-20a10.72,10.72,0,0,1,3-.39c10.25,1.82,13.78.36,17.88-9.52,8.36-20.12,16.27-40.43,24.3-60.69,2.74-6.91,5.6-13.8,7.86-20.88,1.8-5.64,4.88-7,10.21-5,12.64,4.87,25.47,9.3,38,14.47,13.27,5.49,18.59,17.42,14.69,31.33-3.34,11.91-8.77,22-20.67,27.89-2.52,1.24-4.71,5.79-4.8,8.88-.37,12.22-.94,24.63.82,36.64C1068.39,1106.72,1074.28,1111.72,1078.13,1117.43Zm6.42-94.23c.08-10.18-6.78-19.74-14.91-22.41-4.66-1.53-8.25-.84-10.25,4.33-3.54,9.15-7.39,18.19-10.92,27.35a7.38,7.38,0,0,0-.13,5.19c2.29,4.88,17.47,9.68,22,6.77C1078.59,1039.13,1082.83,1031.06,1084.55,1023.2Z"/><path d="M577.84,986.29c21.75-.45,39.14,8.31,52.66,25.08,11.85,14.71,20.85,30.83,23.41,49.86,3.48,25.93-19.65,47.22-45.11,40.61-22.79-5.92-39.29-21.24-50.57-41.21a123.79,123.79,0,0,1-13-35.63C540.14,1000.34,552.73,986.25,577.84,986.29Zm67.5,83.68c-.43-4-.39-6-.86-7.73-8.09-30.47-24.82-53.66-55.33-65.07a24.84,24.84,0,0,0-6.22-1.34c-10.14-1-16.41,5.41-14.71,15.51a54.3,54.3,0,0,0,4.27,13.6c8.6,18.67,21.36,34.26,36.81,47.61a115.41,115.41,0,0,0,19.28,13.92c2.45,1.35,8.6.26,10.12-1.84C642.13,1079.87,643.73,1073.79,645.34,1070Z"/><path d="M876.91,1034.87c5.54-8.64,10.85-15.42,14.53-23,9.08-18.62,17.49-37.56,26-56.46,2.36-5.25,4-10.83,6.33-17.25,2.46.92,5.36,1.82,8.12,3,10.93,4.82,22,9.46,32.68,14.71,18.18,8.89,23.1,23.71,12.76,41.18-4.91,8.3-5.69,15.32-1.36,23.79,3.87,7.58,3.64,16-1.23,22.86-5.32,7.47-11.42,14.86-18.67,20.28-3.86,2.89-11.78,3.67-16.32,1.74-20.5-8.71-40.46-18.68-60.54-28.35A5.62,5.62,0,0,1,876.91,1034.87Zm34.69,11.36c6.62,3,12.56,5.89,18.65,8.4,17.54,7.22,36.86-6,36.83-25.17,0-8.36-3.21-14.92-11.29-18.49-6.06-2.67-11.91-5.93-18.16-8-2.17-.73-6.88.52-7.68,2.18C923.54,1018.48,917.79,1032.14,911.6,1046.23Zm39.1-89.1c-5.23,11.8-10.3,23.26-15.63,35.3l24.3,9.23c5.42,2.05,9,.23,11.67-4.85C980.64,978.72,973.11,963.14,950.7,957.13Z"/><path d="M1194.68,1067.5c-1.85,20.56-7.38,38.25-23.47,51.5-19.15,15.77-59.44,11.41-63.07-24.58-2.76-27.42,5.08-52.36,23.58-72.71,14.47-15.93,43.38-9.64,53.55,11.67C1190.28,1043.86,1191.66,1056.07,1194.68,1067.5Zm-9.93-2.21,2.12-.66c-2.86-9.18-4.84-18.76-8.81-27.44-4.55-10-13-10.43-20.12-2.09-2.23,2.6-4.78,5.35-5.83,8.48-6.45,19.43-12.88,39.1-5.32,59.63,1.74,4.73,5.71,10.94,9.73,11.87s10.6-2.73,14-6.34C1181.66,1096.64,1185.45,1081.58,1184.75,1065.29Z"/><path d="M538.37,1027.89c-.07,6.9-8.27,15-15.15,15-7.12,0-14.92-8.59-14.77-16.18s7.51-16,14.06-16C530,1010.6,538.45,1019.78,538.37,1027.89Z"/><path d="M564,966.65c.09-8,5.26-13.56,12.58-13.61,7.49-.06,14.86,7.09,14.55,14.12-.33,7.34-7.2,13.38-15.28,13.45C568.54,980.66,563.93,975.23,564,966.65Z"/><path d="M1602,403.08c-3.69-2.9-8.23-5.18-10.88-8.83-3.48-4.81-1.86-10.31,2.12-14.5,5.48-5.76,11.34-11.15,17-16.75,4.24-4.19,9.87-7.79,14.69-3.76,3.86,3.21,6.83,9.55,7,14.63C1632.5,385.67,1615.19,401.42,1602,403.08Z"/><path d="M1799.62,216.21c0,12.73-17.13,31.32-29.84,31.22-4.21,0-9.84-2.36-12.14-5.57-1.89-2.62-.92-8.63.75-12.23a41.06,41.06,0,0,1,27-23.1C1794,204.09,1799.62,208.11,1799.62,216.21Z"/><path d="M1729.54,254.34c11.11.3,13.78,3.75,11.38,13.07-3.27,12.76-11.22,21.47-23.27,26.52-6.15,2.58-12.31,2.49-17-2.53-5-5.39-2-10.78,1.43-15.9,6-8.91,11.69-18,23.35-20.33Z"/><path d="M1682.55,317.08c.22,12.11-11.88,27.27-23.7,29.72-9.61,2-16.8-5.4-14.56-14.94,2.53-10.77,16.87-24.33,27.71-26.21C1678.39,304.53,1682.41,308.89,1682.55,317.08Z"/><path d="M390.74,1121.4c-2.13,13.61-8.29,25.31-19.84,33.73-5.45,4-11.41,4-17.15.44s-5.12-9.09-3.33-14.22c2.85-8.17,5.27-16.87,10-23.87,3.2-4.7,9.76-8.15,15.49-9.84C384.74,1105,391.37,1111.75,390.74,1121.4Z"/><path d="M353,1190.63c-.13,15.24-11.47,30.78-25.2,35.12-7.07,2.24-13.73-.74-14.35-8.06a43.34,43.34,0,0,1,2.89-19.84c2.59-6.13,7.79-11.23,12.13-16.55s10.17-6.25,16.53-4C351.57,1179.71,353.54,1184.77,353,1190.63Z"/><path d="M394.77,1091c-12.36,0-16.29-5.48-12.17-16.13,2-5.19,4.35-10.25,6.59-15.35,4.21-9.56,12.88-13.42,22-15.25,7.16-1.44,9.18,5.87,10.58,10.74,3.41,11.85-11.59,33.69-23.75,35.71C396.73,1090.93,395.39,1091,394.77,1091Z"/><path d="M288.51,1284.92c-9.71-.24-14.76-6.48-13-14.05,2.71-11.61,6.78-22.46,17.77-29.09,5.76-3.47,11.56-4.7,16.77.52s4.8,10.7.51,16.49c-5.07,6.84-9.51,14.16-14.77,20.83C293.68,1282.29,290.1,1283.8,288.51,1284.92Z"/><path d="M1514.14,1152.35c10.24.12,20.27,10.42,20.17,20.72-.09,8.42-6.39,15-14.24,14.88-10.53-.18-22.41-10.84-22.22-19.94C1498.05,1158.53,1504.59,1152.25,1514.14,1152.35Z"/><path d="M1509.82,1060.47c-.09-9.17,4.75-14,14.32-14.21,9.33-.24,19.28,8.09,19.53,16.34.29,9.09-7,17.27-15.28,17.14C1518.83,1079.58,1509.92,1070.34,1509.82,1060.47Z"/><path d="M1596.1,1104.46c.17,8.41-7.59,16.22-16.24,16.36-8.44.13-16.65-9.51-16.89-19.84-.15-6.75,9.15-15.27,16.68-15.28S1595.93,1095.58,1596.1,1104.46Z"/><path d="M1465.78,996.13c9.65-.19,20.17,9.34,20.57,18.64.34,8-6.18,16.32-12.94,16.51-9.06.24-19.28-10.71-19.43-20.81C1453.87,1002.51,1459,996.27,1465.78,996.13Z"/><path d="M98.66,31.32l15,8.18C105.56,41.92,105.56,41.92,98.66,31.32Z"/><path d="M1609.09,1055.49l-.57.46.82-.3Z"/><path d="M1877.82,41c-21.68-4-42.72-4.44-63.92,1.48-16.65,4.65-31.82,12-44.67,23.76-6.39,5.82-6.44,9.86-.52,16.24,1.09,1.17,2.28,2.25,3.39,3.4,12.66,13.19,11.84,28.56-2.11,40.19-14.72,12.27-32,19.06-50.5,22.56-66.12,12.51-132.31,24.62-198.5,36.75-13.13,2.4-19,9.24-18.67,22.49.08,2.92-.22,5.85-.41,8.77-1.58,23.21-9.8,44.54-18.63,65.69-12.2,29.25-36.7,45.87-62.86,62-5.82-16-11.19-31.25-16.92-46.37-19.81-52.28-50.2-97.5-93.15-133.33-44.26-36.91-95.91-56.95-153.17-64.1-43.43-5.42-86.06-7.17-129,4.6-47.62,13-93.33,29.81-133.33,59.25-20.54,15.13-39.8,32-59.43,48.35-10.61,8.83-10.41,9.05-21.25,1.2-3.45-2.5-7-4.9-10.44-7.37-67.46-47.83-142.26-75-225-78.67-34.67-1.53-69.28,0-102.33,12.68-56.91,21.75-105.16,55.55-143.49,103.16-6.45,8-7.31,8-15.1,1.13C289.2,219.66,261,194.09,232,169.44a74.22,74.22,0,0,1-23-33.58c-7-20.47-16.49-39.78-30-56.89-25.36-32-58.86-51.7-96.87-64.7C68,9.47,54,4.75,40,0H20.78L0,11.19V28.77A28.75,28.75,0,0,1,1.68,33C10.25,71.32,24.3,107.24,47.9,139c26.92,36.18,59.77,63.4,106.11,70.53,3.83.59,7.76,3.49,10.71,6.3,35.28,33.59,70.33,67.42,105.61,101,5.09,4.85,5.65,9.37,2.66,15.56-7.85,16.28-15.75,32.57-22.71,49.24-21.49,51.47-32,105.16-24.64,160.66a482.55,482.55,0,0,0,35.27,128.87c2.68,6.19,3.74,11.29.75,18.82a136.9,136.9,0,0,0-9.63,53c.44,27.91,5.09,54.59,18.41,79.2,3.65,6.74,8.87,13.88,15.25,17.66a644.1,644.1,0,0,0,59.11,31.31c18.46,8.49,32.72,19.81,40.8,39.14,9.62,23,27.08,37.76,51.76,43.32,13.65,3.07,26.3,2,37.51-7.69,2.05-1.77,7.29-2.79,9-1.47,7.69,5.82,14.64,12.61,21.94,19.13-24.64,22-41.95,31-73.32,21.63-1.77-.53-3.68-.58-5.5-1-19.45-4.07-26.67-.6-35.79,17.39-6,11.86-11.86,23.8-17.94,35.63-1,2-2.53,4.62-4.32,5.09-8.2,2.17-16.07-5.78-14.51-14,.79-4.14,1.87-8.49,1.36-12.56-1.43-11.49-7.34-14.25-17.79-9.27-13.92,6.62-20.59,18.64-24.75,32.6-1.87,6.25-2,12.41,3.69,16.71,6,4.47,12.45,2.87,17.84-1.09s10.17-9.06,15.3-13.74c4.17,1.65,8.86,3,12.93,5.35,1.76,1,3.72,5,3,6.39-9.86,20.27-20.15,40.32-30.46,60.68l-23-11.5c-.55.93-1.1,1.86-1.64,2.79,4.82,3.18,9.52,6.58,14.51,9.47,4.19,2.43,7,5,4.26,10.14q-14.58,26.91-29.22,53.81l.16-.16c-.59,2.84-.55,6-1.88,8.47-10.57,19.34-21.4,38.54-32,57.58-17.91-5.21-18.43-6-15.74-22.44a45.37,45.37,0,0,0,.66-4.74c.35-6.43-.48-13.21-6.93-15.69s-12.55,1.22-15.58,6.86A402.26,402.26,0,0,0,212,1244.52c-1.4,3.4-1.27,10.22.79,11.64,3.33,2.3,9,2.45,13.38,1.57,3.88-.79,7.65-3.72,10.7-6.54,3.42-3.17,6-7.27,9-11.13,3.27,1.93,6.13,3.83,9.17,5.38,8.59,4.39,9.08,5.46,4.65,13.9-13,24.73-25.81,49.54-39.11,74.09-15.07,27.8-21.63,57.66-22,89-.21,20.39,11,35.57,30.22,42.49,16.93,6.1,33.92,5.58,50.91.12,33.3-10.71,56.59-34.06,76.68-61.23,5.53-7.49,1.87-15.26-7.69-18.24-20.28-6.33-24.72-19.1-13.09-37.11,11-17,26.37-29.13,43.84-38.72,38.48-21.11,77.16-41.85,115.59-63,18.17-10,36.1-20.49,53.88-31.2,12.13-7.3,14.27-13.48,10.29-26.77-2.59-8.66-6.05-17.08-8.24-25.83-1.08-4.33-.19-9.16-.19-15.82,7.19,4.79,12.13,7.85,16.83,11.24,46.13,33.26,95.32,34.68,146.62,14.18,8.64-3.45,17.27-7,25.75-10.79,5.8-2.6,10.33-1.74,15.3,2.4,37.51,31.25,71.91,65.72,105.75,100.83,17,17.61,34.56,34.66,52.49,51.31,8.54,7.93,14.27,7.61,23.42.32a52.08,52.08,0,0,0,12.26-13.36Q991.9,1232,1034,1160.42c8.76-14.82,9.9-15.37,26-10,2.77.93,5.63,1.64,8.35,2.69,39.76,15.41,79.63,13.76,119.64,1,38-12.15,54.3-38.26,47.47-77.4-2.56-14.67-1.41-28.85,4.61-42.2,8.42-18.64,17.84-36.82,26.87-55.17.17-.34.92-.39,1.87-.74,31.49,24.69,53.69,55.5,60.89,95.83,1.23,6.86,4.92,10.27,11.09,13.12,14.86,6.86,29.29,14.63,44.49,22.34l-5.55,6.87c-5.91-2.41-11.17-5-16.71-6.69-7.37-2.21-11.38,1.54-10.49,9.11,1.43,12.06,19.75,27.56,32,27.25,5.38-.14,7.31-2.62,5.73-7.68a113.08,113.08,0,0,0-4.7-13.56c-2.31-5.07-1.28-8.55,4.11-11.54,15.44,10.53,31.13,21,46.45,32,2.13,1.53,4,6.19,3.21,8.43-1.44,4.09-5.14,6.51-10.31,4.42-4.43-1.79-9.18-2.76-13.64-4.46-6.36-2.42-7.62,0-6.51,5.89,1.93,10.21,19,28.68,28.83,30.82,4.65,1,7-1.74,6.23-5.73-1.06-5.4-3.81-10.46-4.93-15.86-.59-2.87-.18-8,1.42-8.81,2.59-1.29,6.84-.55,9.82.7,2.46,1,4.1,4,6.08,6.19,8.27,9,16.82,17.84,24.58,27.29,1.77,2.16.85,6.54,1.17,9.89-3-.1-6.21.28-9.1-.42s-5.68-2.9-8.69-3.77c-8.09-2.34-10.86.07-10.3,8.52.93,14.07,10.46,22.48,20.84,29.56,6.74,4.6,14.36-.61,13.55-8.74-.43-4.33-3.38-8.4-3.83-12.74-.33-3.07.65-7.5,2.77-9.34,3.68-3.2,5.81.54,7.72,3.69,8,13.19,16.24,26.24,24.21,39.46,3.55,5.88,8.28,9,15.22,7.51,6.39-1.35,9.66,1.69,12.49,7.07,7,13.32,19.25,14.88,29.86,4.07a136.18,136.18,0,0,0,34-58c4-13.91,11.38-22.85,24.57-29.07,20.1-9.46,36.75-23.51,47-43.9,5.61-11.15,4.21-18.09-5.41-25.85-5.65-4.57-9.18-9.78-9.92-17.4-.29-2.85-4-6.67-7-7.74-16.45-5.87-33.36-10.48-49.69-16.62-11.09-4.16-11.17-7.47-1.81-14.74a104.53,104.53,0,0,1-10.86,3.71c-2.51.61-5.92,1.2-7.82,0-14.21-8.83-28.15-18.11-42.14-27.21,6.46-11.64,8.77-12.47,21.25-11.37,3.89.34,10.38-.69,11.52-3.08,2.39-5,1.23-10.89-4.85-14.29-5.34-3-10.47-6.32-15.63-9.6-4.84-3.09-10.7-5.33-14,.15-1.54,2.56,1,9,3.53,12.29,4.41,5.73,4.79,10.07-.45,15.23-2.23,2.19-3.49,5.35-5.32,8.28l-48.17-43.59c6.8-11.35,10-12.26,21.45-8.53,3.14,1,8.26.85,10.29-1.07s2-6.95,1-10.11c-2.24-7.67-8.31-12-15.53-14.95-5.88-2.36-12.88-4.92-16.59,1.24-1.76,2.93,1.08,9.92,3.67,13.88,4.1,6.27.48,9-3.39,12.6-4.38,4.05-7.37,2.37-10.51-1.58-9.58-12.09-19.52-23.89-28.88-36.13-5.86-7.67-12.78-11.73-22.6-10.18-3.94.62-8,.81-11.92,1.22a98.07,98.07,0,0,1-52-8.51c-42.52-19.53-78.29-48.07-111-80.88-2-2-3.25-4.54-6.06-8.57,6.56-1.49,11.5-3.11,16.56-3.69,51.76-5.94,89.36-31.91,111.26-79.36a322.61,322.61,0,0,0,16.9-44.74c6.22-21.37,11.42-43.09,15.74-64.92,1.34-6.8,3-12.51,7.3-17.86q15.57-19.26,30.45-39.06a39,39,0,0,0,6.33-12.63c3.15-11.18,5.32-22.63,8.36-33.84,3.23-11.92.9-20.13-9.06-27.27-6.26-4.49-13.38-7.92-19.14-12.95-3.39-3-6.52-8-6.88-12.36-1-11.38,3.5-21.7,13.88-26.79,17.86-8.76,36.08-17.1,54.83-23.67,19.49-6.83,37.64-2.74,53.19,11.83,7.89,7.38,16.73,13.75,25.41,20.8,3.17-2.81,5.85-5,8.29-7.38,13.29-13.08,26.47-26.27,39.78-39.33,12.8-12.56,12.86-12.51,25.23.91a5.81,5.81,0,0,1,.68,1.57c-2.16,4.43-5.17,8.75-6.29,13.52-.81,3.41-.34,8.73,1.83,10.78s7.64,2.24,10.81,1c11-4.2,20-11.35,25.51-21.9,2.84-5.42,7.77-11.83,1.56-17.42-6-5.39-12.12-.61-17.38,2.82-10.71,7-10.58,7.13-19.88-1.74-1.88-1.79-4-3.39-6.36-5.43L1691,354.4c15.76,12.24,16.49,13.53,8.66,27a13.78,13.78,0,0,0-1.49,5.36c-.84,7.57,4.63,12.46,12,10.14,14.48-4.57,25.17-13.86,30.62-28.1,1.26-3.3.57-9-1.63-11.5s-7.6-3.6-11.34-3.15c-3.94.46-8,3-11.25,5.51-4.17,3.19-7.55,3.09-11.34-.19a80.42,80.42,0,0,0-7-5.36c-4.79-3.32-4.5-6.2-.18-10q18.51-16.44,36.46-33.49c13-12.43,14.36-12.56,26.32.72a5.38,5.38,0,0,1,.81,1.8c-3,4.73-6.48,8.92-8.54,13.71-3.41,7.94.6,14.44,8.46,15,12.21.83,31-10.36,34.55-21.9,1.29-4.16.45-10.63-2.15-13.82-2.26-2.77-8.42-3.35-12.77-3.12-4,.21-7.89,3-12,4.21-1.71.51-4.35.63-5.57-.34-4.31-3.42-8.18-7.38-12.62-11.52l47.72-43.82,13.87,16.63c-3,4.34-6.23,7.53-7.62,11.37s-2.71,9.56-.85,12.2c2.23,3.18,7.86,5.54,12,5.51,14.29-.11,30.7-14.06,33-28,.64-3.77-1-9.35-3.72-11.82-2.29-2.1-8-2.07-11.47-.92-6,1.95-11.36,5.53-17.48,8.68-4.33-5.91-8.36-11.39-13.24-18.06,4-3.44,7.66-6.44,11.11-9.7,20.11-19,40.43-37.84,60.16-57.26a169.25,169.25,0,0,0,43-69.15C1927.53,80.13,1905.77,46.23,1877.82,41ZM160.15,76.55l-9.08-15.26C161.59,62.89,163.69,66.38,160.15,76.55Zm113,228.88c-1.73-3.65-5-6.73-8-9.6-5.75-5.52-14.78-9.67-17.08-16.26-4.06-11.59-14.31-14-21.81-20.48-17.82-15.52-35-31.73-53.2-48.3l5.39-3.45c-12.95-14.49-31.84-12.56-47.85-18.3-28-10.06-52-25.15-69.65-49.53-10.57-14.6-22.92-28.17-31.61-43.79C16.55,72.64,9.52,47.18,6.33,20.79c-.89-7.31,2.76-10.64,9-12.8a50.3,50.3,0,0,1,32.16-.33c36.19,11.28,71.18,25.16,102,49.06-5,8.61-4.45,9.8,3.61,14.93a36.79,36.79,0,0,1,9.71,9.24c8.64,11.81,16.9,23.89,25.21,35.92,7.61,11,14.08,22.45,15.54,36.23.64,6.05,3.51,10.65,9.3,14.67,8.25,5.73,14.75,14,22.11,21,1,.93,2.62,1.2,4,1.66,4.54,1.5,9.57,2.17,13.5,4.62s8.28,6.21,10.06,10.4c2,4.69,3.43,8.64,8.74,10.15,1.39.4,3.49,1.78,3.57,2.83.66,9,9.27,10,14,14.78,6.43,6.53,11.9,14,18,20.81,2.5,2.79,5.63,5,9.12,8.06-10,14.85-20.2,30.59-31.12,45.81C280.63,313.79,276.37,312.17,273.18,305.43Zm12.21,29.12S419.6,112.17,626.18,139.8c0,0,155.27,44.74,186.85,97.38l19.74,7.89s129-156.58,327.63-132.9c0,0,231.59,36.85,259.22,319.75l3.92,49s-309.14-246-823.39,62c0,0-272.34,208.62-279.53,219.93,0,0-21.59,24.66-47.28,3.08,0,0-18.5-42.13,2.06-68.85l4.11-21.59S189.33,497.71,285.39,334.55Zm258.32,877.3c-15.48,11.48-31.8,21.27-50.65,26.36-6.38,1.72-12.47,4.52-19.09,7,.58,1.66,1,3,1.63,4.67h-7.36v6.21c-21,6.28-40.58,14.14-57.88,27a26.06,26.06,0,0,1-7.76,4,113.12,113.12,0,0,0-43.34,24.71,287.86,287.86,0,0,0-38.94,43.94c-9.43,13.12-.05,36,15.38,42.66-1.54,2.8-3.08,5.57-4.58,8.29,5.08,9.17,4.44,10.32-3.54,17.89-18.6,17.63-41.34,27.56-65,35.75-2.13.74-5-.09-7.39-.84-5.55-1.77-10.91-4.17-16.5-5.8-2-.58-5.84-.45-6.46.68-3.35,6.08-7.46,3.33-10.55.8-4.44-3.65-8.17-8.2-12-12.54a6.74,6.74,0,0,1-1.7-4.37c1.13-16-3.12-31.93-.67-47.87.79-5.16,3.22-10.07,4.91-15.1,3.37-10,6-20.38,10.36-30,3.68-8,9.64-15,14.13-22.72q18-31,35.6-62.31c1.92-3.42,2.69-7.48,4.08-11.21,2.77-7.49,5.53-15,8.48-22.4.42-1.07,2-2.55,2.83-2.44,6.94.92,6.82-4.67,8.84-8.74,6.21-12.53,13-24.8,19.2-37.32,5.54-11.13,10.18-22.72,16.14-33.61,5-9.16,11.38-17.59,17.38-26.7l-5.4.43,10.7-17.63,14.41,5.71c-5.37-8.46-5.55-15.92-1.94-24.56,4.28-10.23,5.43-21.84,10.13-31.81a377.06,377.06,0,0,1,24.64-43.48c2.16-3.35,8.64-4.84,13.35-5.41,7.89-1,16-.22,23.93-.68,12.38-.71,24.74-1.83,37.11-2.76,1.56-.12,3.12-.16,6.2-.31-2,5.83-3.51,11-5.49,16a293.24,293.24,0,0,0-19.72,81.12c-1.12,12,.72,16.24,12.05,20.23,22.27,7.84,44.78,15,67.28,22.19,10.53,3.36,10.64,3.32,8,13.58a40.11,40.11,0,0,0,5.07,32.15C557.1,1194.81,555.26,1203.27,543.71,1211.85ZM942,1297.16s-9.56,28.23-31.27,5.21L702.27,1086.52S750.92,1048.31,863,1070c0,0,119,38.22,166.34,76.87Zm325.21-350.75c-5.18,27.59-12.22,54.28-28.86,77.89-10.93,15.51-11.15,33.94-8.95,52.35,5.24,43.84-15.56,70.2-59.65,77.6-47.09,7.9-91.52,0-134.32-20-33.21-15.58-66.11-31.89-99.91-46.09-25.4-10.68-51.38-21.46-78.17-27-62.33-13-123.07-4-180.33,23.56-15.8,7.6-30.48,18.83-43.34,30.89-17.07,16-22.6,36.81-15.09,60.83-2.16-.09-3.27.11-4.2-.22-29.71-10.56-56.19-25.57-72.55-54-2.44-4.23-4.51-7.28-10.59-3.41l6.58,12.52c-13.31-3.52-25.07-6.5-36.75-9.75-4.85-1.36-9.55-3.27-14.31-5-19.66-7-23.47-13.9-21-34.93,4.63-39.75,23.29-72,52.31-98.64,59.16-54.25,129.07-85.9,208.51-95.15,56.58-6.59,111.3,2.08,163.47,26.07C946.08,939.7,1002,966,1061.8,982.2c36.46,9.87,72.86,21.91,111.22,18.43,33.83-3.06,61.71-18.15,77.22-50,4-8.27,4.83-18.41,5.73-27.82.94-9.75.21-19.67.21-32,2.54,3.39,4,4.94,5,6.72C1270,913,1270.39,929.51,1267.22,946.41Zm-12-78.42c6.6,10.3,16.26,14.65,28.21,14.83a9.29,9.29,0,0,1,4.38,1.81q36.23,23.19,72.33,46.53c1.76,1.14,2.89,3.2,4.48,4.63a6.26,6.26,0,0,0,3,1.31c8,1.44,16.07,2.39,23.94,4.28,12.84,3.08,25.17,8.33,38.92,2.47,3.08-1.31,9.42,1.71,12.64,4.57,23.44,20.86,48.63,40.3,69.12,63.81,30.6,35.12,68.11,59,109.56,77.92,9.78,4.47,20.1,7.76,31.7,12.18.5,9.54,10,15.31,17.5,22.64,6.17,6.06,5.86,7.32-1.39,11.54-3.11,1.82-5.82,4.32-8.71,6.51l1,1.91,6.83-3.2c-1.7,9.12-7.12,15.73-14.17,20.17a286.13,286.13,0,0,1-34.93,19c-7.73,3.47-11.76,8.19-13,16.37-1.81,12-9,19.7-20.94,23.71l5.77,2.51a4.57,4.57,0,0,1-.31,1.31c-3.89,6.59-13.57,10.17-10.57,20.51.16.54-3.15,2.22-4.95,3.16-3,1.54-6,2.91-9.88,4.78l10.53,7.93-12.17-1c-.86-4.74-1.69-9.26-2.82-15.48l-3.79,5.34c-7.14-2.36-13.85-3.63-19.58-6.72a77.29,77.29,0,0,1-17.54-13c-5.6-5.55-10.14-12.22-14.85-18.61-1.45-2-1.83-4.69-2.87-7-1.13-2.53-2.46-5-4.12-8.28l3.4-2.73c-9.09-7.88-18-15.73-27.08-23.4-2.82-2.39-5.76-5-9.11-6.3-6.36-2.39-5.33-8-6-12.65-.08-.5,5.34-1.84,8.17-1.61,3.78-3.3,7.67-6.49,11.34-9.92,5.76-5.38,5.82-14.08.32-21.67s-16.57-10.18-24.28-5.92c-6.5,3.6-9.14,11.78-6.35,19.53,1.19,3.33,2.26,6.71,3.7,11-9.63-1.54-16.28-3.26-20.77-12.14-3.51-6.92-11.3-11.68-18.47-18.66l7.26-3.18-25-9.16-.11-2.57c9.07,5.39,16.16,2.85,22.46-3.54,5.92-6,5.5-12.88,3.06-20-2.79-8.16-8.87-12.56-17.18-13.5-7.37-.84-11.62,3.2-16.13,9.14-5.79,7.63-4.59,16.91-9.2,24.86-7.2-5.3-17.88-6.93-20.16-18.31-.2-1-1.79-2-2.94-2.42-5.69-2-8.29-5.61-5.27-11.66l-7-2.75c4.22-9.73-7-8.83-9.84-15,3.08-5.2.2-9-4.68-12.88a19.07,19.07,0,0,1-6.42-9.76c-2.77-11.9-9.2-20.49-18.85-28-8.07-6.31-14-15.32-21.39-22.57-2.43-2.36-6.6-2.93-10.56-4.56,1.94-3.27-2.61-10.92,5-11-.33-6.78-1.23-13.59-.87-20.33.83-15.54-1.33-30.28-9.76-43.65-2.47-3.92-5.69-7.4-8.08-11.37-2.08-3.45-3.47-7.32-5.38-11.47C1254.37,868.05,1255.13,867.81,1255.25,868Zm90.26-90.44s-3.13,34.44-97.06,49.06L1238,847.48s34.44,113.76-42.79,136.73c0,0-30.27,37.57-292.24-74.11,0,0-159.64-114.05-379.94,52.17l-25-28.16S682.76,765,717.2,750.41c0,0,134.64-103.32,336.07-122.11C1053.27,628.3,1372.65,620,1345.51,777.55Zm117.17-248c-2.4,6.75-4.36,11.54-5.79,16.47-1.77,6.06-3,12.28-4.64,18.37-1.93,7-2.73,14.74-6.43,20.66-13.61,21.78-29.88,41.41-50.8,56.81-2.81,2.07-4.64,5.45-6.92,8.23l1.93,1.84,15.43-9.18c6.26,22.12-27.18,115.68-48.75,135.43,4.09-17,1-32.8-1.92-48.78-3.16-16.94-12.18-29.61-24.16-41.16-29.26-28.21-64.61-44.71-103.76-53.12-46.62-10-93.79-17.06-141.59-17.14a547,547,0,0,0-172.69,27.18c-15.14,5-30.5,9.33-45.81,13.77-2.26.66-4.79.36-7.22.44,13.71-5.49,27.51-10.73,41-16.64,3.67-1.6,6.46-5.23,9.66-7.93-3.38-2.41-6.68-4.94-10.2-7.14-1.2-.75-2.94-.64-4.43-.92-6.33-24.66-12.59-49.07-19-74.16L927.8,537c4.56,25,9.15,49.25,13.12,73.58.32,2-3.17,6-5.56,6.71-7.74,2.12-12.14,6.27-12,16.37,4.7-.59,9.72-.3,14-1.91a351.78,351.78,0,0,1,93-21.56c17.42-1.55,35-.8,52.57-1.17,7.43-.16,14.88-.28,22.27-1,2.32-.22,4.47-2.24,7.56-3.9-12.6-6.62-12.55-6.61-8.43-19.38,4.23-13.15,8.55-26.29,12.41-39.55,1.76-6.05,4.86-8.92,11.37-8.47,7.69.53,15.43.52,23.15.6,5.08,0,8,1.95,8,7.52-.07,18.36,0,36.72,0,55.07-8.65,4.48-20.23-3.27-27.71,6.43l101.63,18.42c2.46-3.72.56-7.1-4.11-8.78-5-1.78-5.75-5-4.71-9.39q8.35-35.32,16.76-70.63c1-4.06,3.24-5.47,7.68-4.08,8.16,2.55,13.74,7.48,14.82,16,3.29,25.83,6.17,51.72,9.25,78-6.62,3.11-14.18-7.76-21.15,2.64,12.52,5.52,24.57,10.91,36.68,16.13,8,3.44,16.23,6.28,24,10s15.22,8.8,23.16,12.49c3.86,1.79,8.56,1.79,12.89,2.61l1.71-3.43-12.26-8.8L1411,519.11c8.12,4.35,15.8,8.44,23.45,12.59,4,2.18,4.32,5.1,2.83,9.39s-1.4,8.88-2.17,14.48C1450.56,551.93,1449.05,535.07,1462.68,529.54Zm-335.6-13.95c7.81-22.36,16-44.57,24.15-66.81l3.09.72,4.33,71.65c-9.42,0-18.6.25-27.74-.25C1129.47,520.82,1126.64,516.84,1127.08,515.59Zm120.11-6.65c5.08-15.66,10.09-31.34,15.55-46.86a9.26,9.26,0,0,1,6-5.15c9.21-1.57,28.82,9.79,32.13,18.35a11.4,11.4,0,0,1,.36,7.39c-4,11-8.33,21.84-13,32.56-3,7-8.24,10.44-14.38,10.28-6.76-1.61-14.09-3-21.19-5.15C1247.26,518.7,1245.42,514.41,1247.19,508.94Zm188.8-3.75c5.82,3.61,11.32,7.74,17,11.63-.22,1-.43,2-.64,3-3.59-.33-7.62.29-10.69-1.15-29.15-13.61-58.13-27.58-87.19-41.4-6.91-3.28-15.22-5.26-12.26-16.36-11.57,5.17-22.1,30.29-17.07,40.88,2.85-2.7,6.22-4.75,7.9-7.73,3.48-6.16,8.27-7,14.14-4.88,7.49,2.74,14.81,5.92,22.28,8.69,5.48,2,6.8,5.11,4,10.42q-9.7,18.33-18.93,36.92c-14,28.08-27.81,56.26-41.83,84.33-2.88,5.76-4.68,13.29-13.45,12.5-7.23-.66-14.68-9.11-15.63-18.22-1.82-17.47-2.84-35-4.63-52.49-1.21-11.83-3.17-23.58-4.9-36.12,9.83-2.1,18.86-6.75,24.07-16.67,7.41-14.13,11.66-29.22,11.66-45.13,0-9.69-5.73-16.59-14.8-19.84-16-5.73-32.15-11.21-48.39-16.32-8.68-2.74-13.25.66-15.76,10.82q-11.94,48.4-23.76,96.85c-3.31,13.43-6.54,26.88-10.19,40.21-1.39,5.07-3.82,9.87-5.88,14.76-1.87,4.46-4.26,7.57-10.17,6.23-5.68-1.28-7.08-5-7.44-9.83-1.11-15.13-2.37-30.25-3.16-45.4-2-38.27-3.83-76.55-5.7-114.82-.69-14.27-4.53-17.74-18.86-16.89a49.93,49.93,0,0,1-6.35.17c-15.21-1-15.15-1-20,13.9q-25.06,77.38-50.33,154.7c-1.74,5.29-5.15,10-7.78,15l-2.51-.59-2.73-20.2-2-.38c-2.35,3.66-4.55,7.42-7.12,10.92-1.28,1.74-3.09,4-4.93,4.29-14.15,2.21-28.37,4-43.42,6-.75-6.59-1.58-12.54-2.1-18.52-1.4-16.17-2.93-32.34-3.8-48.55-.19-3.62,1.26-9.79,3.48-10.59,5.28-1.91,12.11-4.22,16.18,3.22.35.63,1.17,1,2.27,1.94,5.17-9.89,4.14-19.41.73-29.48-5.2,3.2-.37,12.94-9.56,12.42-5.53-.31-11.09-.06-17.4-.06-2.09-23.05-4.13-45.5-6.26-68.88l46.52-3.6c3.25,4.62,2.1,13.3,13.44,8.51,0-6.56.24-14.41-.08-22.24-.23-5.44-4.74-5.49-7.28-3-8,7.77-18.3,5.71-27.63,7.26-15.48,2.56-31.13,4.12-46.68,6.3-8.11,1.14-11.2,5-10.37,13,3.26,31,6.66,61.91,10,92.87Q963.53,576.84,967,610c-8.57,3.45-10.85,2.5-12.66-5.8C944.06,557,934,509.6,923.44,462.37c-1.55-6.92-.13-10.39,6.36-12.59,1.49-.5,2.36-2.8,3.52-4.28-1.45-1-3-2.86-4.35-2.76-14.67,1-29.17,3-41.55,11.9-1.75,1.25-2.73,3.57-4.07,5.39l1.26,2.86,23.73-5.95c5.5,24,11,48.26,16.76,73.27l-48.89,15.48c-1.13-3.89-2.28-7.31-3.1-10.81-4.29-18.38-8.65-36.75-12.59-55.2-.73-3.42.19-7.25.63-10.85a67.82,67.82,0,0,1,1.62-7.23c-3.5-.63-7.33-2.5-10.44-1.66-6.88,1.86-13.51,4.82-20,7.79-8.94,4.07-17.7,8.51-26.45,13-1.14.58-1.75,2.19-3.06,3.92,1.71.54,2.64,1.14,3.5,1.05C820,484.25,821,484,824.63,497.5c12.56,46.7,24.34,93.61,36.54,140.41,1.12,4.31-.5,6.26-4.2,7.91-5.55,2.49-11.05,5.29-12.45,14.44l14.6-.79c-.9,1-1.6,2.47-2.66,2.81-35.86,11.34-67,32.25-100,49.29-67.12,34.59-125,81.35-179.87,132.75-35.1,32.91-72.43,63.44-108.65,95.16C459.22,947.09,450,948,439,945.21c-18.48-4.62-32.05-14.73-41.13-31.4-6.06-11.12-12.65-22-18.95-32.85,8.09-4.62,16,9.4,24.81-2.13-6.57-1.66-12.06-3.08-17.57-4.42-23.51-5.74-46.88-11.53-68.87-22.34-31.3-15.39-49.07-39.7-52.57-75.38,5,3.13,9.88,6,14.54,9.1,12.77,8.57,26.54,9.73,39.1,1.47,17.73-11.65,34.74-24.52,51.32-37.8C426.38,704,482.05,657.24,539.47,612.7,635.68,538.07,742,481.42,856.81,441.1c17.39-6.11,36.32-7.7,54.38-12.06a823.89,823.89,0,0,1,193-22.8c44.72-.05,89.48,1.92,133,13.89C1307.31,439.42,1374.05,466.75,1436,505.19Zm140-51c-1.3-3.28-2.47-6.19-3.56-8.93l12.8-1.86C1588,450.15,1581.2,451,1575.94,454.16ZM1913.36,101.3a101.21,101.21,0,0,1-10.55,16.85c-3.87,5.11-10.39,8.18-10.43,16.11,0,2.4-3,4.79-4.19,6.6l2.83,1.36c-.16.79-.33,1.59-.49,2.39l-9.63-1.81c-3.41,4.2-9.41,7.92-4.84,16.11.86,1.55-1.42,5.86-3.36,7.74-3.17,3.07-7.26,5.19-11.82,8.3l6.57,1.12c-3.57,4.17-6,8.69-9.79,11.13-12.07,7.77-20,19.51-30.11,29.18-6.23,6-14.07,10.3-21.2,15.35-1.06.75-2.54,1.19-3.21,2.19-14.22,21.37-35.57,35.35-53.86,52.53-16.27,15.28-31.44,31.73-47,47.79-18.69,19.31-37.14,38.85-56,58-3.17,3.24-7.67,5.17-11.5,7.79-2.41,1.64-5.7,2.93-6.87,5.25-6.11,12.09-18.41,17.06-28.19,24.7-10.38,8.11-21.35,8.34-35,3.58-11.52-4-19.4-14.31-33.21-14.61-22.84-.48-43.46,5.83-64,14.08-2.77,1.11-6,1.09-8.8,2.15-6.27,2.35-12.41,5-19.6,8-4.45-4.49-2.62-10.06-.62-15.67,1.13-3.15,3-5.95-1.45-8.85-1.74-1.15-1.78-5.63-1.76-8.59,0-6.08.74-12.15,1-18.24.19-4.75.1-9.5-6.91-8.69,1.13-4.57,2-8.16,3.15-12.64l-7.54,1.2c1.78-6.25,3.44-12,5.11-17.87,5.62,2.53,16-.67,19-5.67,4.32-7.29-2-7.32-7.77-8.54l15.06-12.2c-2.84,6.06,1.47,6.64,6.56,7.93,9-11.7,18.57-23.69,27.58-36.07,2.56-3.52,3.54-8.2,5.22-12.35.5-1.23.58-3,1.48-3.64,12.45-9.11,14.75-22.39,15.6-36.48.2-3.34,2.11-6.56,2.81-9.92.39-1.87-.11-3.92-.25-6.87l6.09-2.11c-1.54-6.53-5.82-13.89-3.85-18.65,3.91-9.46,13.07-14.34,23.52-17,25.35-6.55,51.22-10.14,76.85-15.09,42.76-8.25,85.11-18.65,127.52-28.62,19.35-4.55,35.26-15.59,49.24-29.4,6.28-6.2,6.42-22.1,0-32.14-3.55-5.54-8.37-10.27-13.17-16,.61-.53,2.08-2.46,4-3.39,5.81-2.77,12.61-4.11,17.57-7.91,8.48-6.5,19.21-10.66,27.84-8.9,11.85,2.42,22.28-1,33.32-1,7.94-.06,15.55,3.17,21.87,9.61,5.07,5.17,12.12,8.54,18.63,12.1,5.19,2.84,6.28,6.32,4.72,11.81a25.22,25.22,0,0,0,.09,13.24c.89-1.55,1.78-3.11,3.89-6.77C1913.58,95,1914.62,98.71,1913.36,101.3Z"/><path d="M279.51,675.41s21.56,63,49,83.59c0,0-15.69,39.22-56.88,13.73C271.65,772.73,239.31,729.12,279.51,675.41Z"/></svg>